#!OML:ASF X:\für Bonn\!DataBase\2005_08_10_Bjorn_Final\c3d\bjorn.ASF
:FULLY-SPECIFIED
:DEGREES
301
root 14.8349 19.094 2.61692 1092.09 -78.1177 -370.551
lowerback 16.3597 2.75017 -0.476854
upperback 17.3459 2.32859 -3.01842
thorax 9.98783 0.795135 -3.29895
lowerneck -0.0340806 -4.44523 9.42119
upperneck -0.258886 -5.96948 3.62109
head -0.238292 -3.02701 -0.40305
rclavicle 1.51076e-014 -5.24792e-014
rhumerus -21.6848 14.6092 -74.6299
rradius 41.5141
rwrist -22.3665
rhand 9.08539 0.015832
rfingers 7.12502
rthumb 34.2584 -26.7102
lclavicle 1.51076e-014 -5.24792e-014
lhumerus -16.1387 -8.01137 78.9279
lradius 42.6566
lwrist -11.9501
lhand -33.5315 -5.94929
lfingers 7.12502
lthumb -6.72734 23.9238
rfemur -11.4344 -2.44447 12.7899
rtibia 31.1328
rfoot -15.7483 9.62991
rtoes -5.11304
lfemur -9.53192 3.66731 -17.8962
ltibia 31.9784
lfoot -18.1183 -3.066
ltoes -7.29715
302
root 14.7779 19.0948 2.63415 1092.32 -78.291 -370.83
lowerback 15.6292 2.58014 -0.761792
upperback 16.827 2.17854 -3.16509
thorax 9.7306 0.721065 -3.25898
lowerneck 0.37589 -4.36958 9.21825
upperneck 0.325743 -5.85563 3.73699
head -0.111833 -2.94773 -0.333641
rclavicle 3.73715e-014 -2.14687e-014
rhumerus -23.0422 14.1314 -75.1879
rradius 42.2054
rwrist -22.2285
rhand 9.00169 0.161113
rfingers 7.12502
rthumb 34.1789 -26.5828
lclavicle 3.73715e-014 -2.14687e-014
lhumerus -16.7859 -8.35653 78.7696
lradius 42.7258
lwrist -10.9766
lhand -33.4408 -5.95708
lfingers 7.12502
lthumb -6.63972 23.9188
rfemur -11.2669 -2.28441 12.8095
rtibia 31.2548
rfoot -15.8452 9.66626
rtoes -4.2314
lfemur -9.10066 3.99591 -17.8361
ltibia 31.6727
lfoot -18.2059 -3.26506
ltoes -7.45387
303
root 14.7219 19.0968 2.65105 1092.61 -78.476 -371.09
lowerback 14.8769 2.40271 -1.00795
upperback 16.2906 2.02486 -3.34796
thorax 9.47824 0.65331 -3.28018
lowerneck 0.736824 -4.28513 9.12358
upperneck 0.960449 -5.74192 3.78595
head 0.0319939 -2.86692 -0.304558
rclavicle -9.54166e-015 3.10104e-014
rhumerus -24.4252 13.6263 -75.7575
rradius 42.9841
rwrist -22.0937
rhand 8.96455 0.236615
rfingers 7.12502
rthumb 34.1436 -26.5152
lclavicle -9.54166e-015 3.10104e-014
lhumerus -17.4499 -8.80462 78.5683
lradius 42.8427
lwrist -9.86545
lhand -33.2648 -5.96218
lfingers 7.12502
lthumb -6.46985 23.919
rfemur -11.1961 -2.14112 12.8302
rtibia 31.4122
rfoot -15.9104 9.76029
rtoes -3.14907
lfemur -8.74805 4.32991 -17.7905
ltibia 31.3761
lfoot -18.3109 -3.42798
ltoes -7.72697
304
root 14.6674 19.0985 2.6666 1093.12 -78.6699 -371.573
lowerback 14.168 2.21619 -1.21264
upperback 15.7541 1.8574 -3.51995
thorax 9.21186 0.581764 -3.31377
lowerneck 1.01738 -4.1871 9.08797
upperneck 1.66843 -5.62495 3.74944
head 0.206982 -2.78095 -0.314665
rclavicle -2.22639e-014 7.71285e-014
rhumerus -25.726 13.1381 -76.3008
rradius 43.7438
rwrist -21.9786
rhand 8.90346 0.254195
rfingers 7.12502
rthumb 34.0856 -26.5105
lclavicle -2.22639e-014 7.71285e-014
lhumerus -18.1207 -9.2303 78.3803
lradius 42.986
lwrist -8.75104
lhand -33.0042 -5.92378
lfingers 7.12502
lthumb -6.21831 23.965
rfemur -11.1718 -2.01074 12.9012
rtibia 31.609
rfoot -15.9659 9.82048
rtoes -2.2181
lfemur -8.4294 4.69787 -17.6971
ltibia 31.0887
lfoot -18.4209 -3.60121
ltoes -7.97876
305
root 14.6143 19.1028 2.68241 1093.57 -78.8542 -371.93
lowerback 13.4886 2.02574 -1.40103
upperback 15.1955 1.68436 -3.70479
thorax 8.91267 0.51039 -3.37109
lowerneck 1.25406 -4.08575 9.09902
upperneck 2.43675 -5.51344 3.67268
head 0.405571 -2.69542 -0.346934
rclavicle 3.97569e-014 3.89618e-014
rhumerus -26.9701 12.576 -76.8256
rradius 44.4816
rwrist -21.9089
rhand 8.82208 0.204522
rfingers 7.12502
rthumb 34.0083 -26.5774
lclavicle 3.97569e-014 3.89618e-014
lhumerus -18.7948 -9.69122 78.2159
lradius 43.1511
lwrist -7.60774
lhand -32.7097 -5.77761
lfingers 7.12502
lthumb -5.93396 24.1193
rfemur -11.2205 -1.88739 12.9525
rtibia 31.8415
rfoot -15.9901 9.84064
rtoes -1.25688
lfemur -8.16622 5.02764 -17.6318
ltibia 30.8032
lfoot -18.5063 -3.7952
ltoes -8.1665
306
root 14.5629 19.1051 2.69915 1094.15 -79.0476 -372.381
lowerback 12.8239 1.83582 -1.54137
upperback 14.5968 1.51449 -3.88541
thorax 8.56845 0.445909 -3.4509
lowerneck 1.55688 -3.98515 9.04738
upperneck 3.22475 -5.40305 3.69336
head 0.604667 -2.61223 -0.337711
rclavicle -2.22639e-014 5.56597e-014
rhumerus -28.1914 11.954 -77.3274
rradius 45.1848
rwrist -21.868
rhand 8.78084 0.104727
rfingers 7.12502
rthumb 33.9691 -26.6859
lclavicle -2.22639e-014 5.56597e-014
lhumerus -19.5528 -10.1797 78.0895
lradius 43.3213
lwrist -6.65953
lhand -32.1008 -5.80869
lfingers 7.12502
lthumb -5.3461 24.1039
rfemur -11.3529 -1.81163 13.0211
rtibia 32.1179
rfoot -16.0252 9.87375
rtoes -0.629045
lfemur -7.96305 5.37874 -17.564
ltibia 30.5194
lfoot -18.5986 -3.95655
ltoes -8.4415
307
root 14.5118 19.1102 2.71632 1094.81 -79.26 -372.856
lowerback 12.1524 1.63489 -1.70843
upperback 13.9699 1.32626 -4.04065
thorax 8.20086 0.368467 -3.48748
lowerneck 1.92961 -3.85719 8.95329
upperneck 3.99058 -5.25109 3.71534
head 0.788272 -2.5121 -0.319405
rclavicle 2.14687e-014 -2.06736e-014
rhumerus -29.2626 11.2597 -77.7734
rradius 45.6752
rwrist -21.7846
rhand 8.6951 0.0534744
rfingers 7.12502
rthumb 33.8877 -26.7552
lclavicle 2.14687e-014 -2.06736e-014
lhumerus -20.3947 -10.6592 78.0481
lradius 43.5323
lwrist -5.86178
lhand -31.4769 -5.70765
lfingers 7.12502
lthumb -4.74361 24.2192
rfemur -11.5734 -1.79852 13.0821
rtibia 32.4388
rfoot -16.005 9.97999
rtoes 0.171788
lfemur -7.80746 5.71107 -17.5071
ltibia 30.2291
lfoot -18.6735 -4.09829
ltoes -8.58556
308
root 14.4616 19.1166 2.73313 1095.62 -79.4737 -373.446
lowerback 11.4606 1.43671 -1.83153
upperback 13.3436 1.14202 -4.18567
thorax 7.85517 0.296298 -3.53926
lowerneck 2.34668 -3.73677 8.83125
upperneck 4.68644 -5.10369 3.74874
head 0.944269 -2.41967 -0.29071
rclavicle 8.74653e-015 -9.54166e-015
rhumerus -30.1699 10.3021 -78.1642
rradius 45.9434
rwrist -21.5113
rhand 8.7586 0.240823
rfingers 7.12502
rthumb 33.948 -26.5545
lclavicle 8.74653e-015 -9.54166e-015
lhumerus -21.2129 -11.1291 78.0312
lradius 43.73
lwrist -5.18393
lhand -30.862 -5.53202
lfingers 7.12502
lthumb -4.1499 24.4073
rfemur -11.8704 -1.7921 13.1653
rtibia 32.8152
rfoot -15.9881 10.0804
rtoes 0.726188
lfemur -7.69615 6.05313 -17.442
ltibia 29.9363
lfoot -18.7598 -4.22227
ltoes -9.00223
309
root 14.4113 19.1237 2.75037 1096.62 -79.7035 -374.209
lowerback 10.7682 1.24036 -1.9441
upperback 12.7189 0.956297 -4.30008
thorax 7.51897 0.222048 -3.56578
lowerneck 2.80122 -3.60217 8.71946
upperneck 5.3017 -4.92987 3.75757
head 1.06907 -2.31951 -0.269186
rclavicle 1.66979e-014 3.49861e-014
rhumerus -31.0074 9.34301 -78.4916
rradius 46.1483
rwrist -21.2576
rhand 8.85112 0.43116
rfingers 7.12502
rthumb 34.0359 -26.3446
lclavicle 1.66979e-014 3.49861e-014
lhumerus -21.9951 -11.4446 78.0581
lradius 43.8787
lwrist -4.69337
lhand -30.2204 -5.31823
lfingers 7.12502
lthumb -3.53033 24.6323
rfemur -12.23 -1.80791 13.2781
rtibia 33.2532
rfoot -15.9889 10.1795
rtoes 1.06214
lfemur -7.59301 6.39257 -17.3641
ltibia 29.621
lfoot -18.8325 -4.31218
ltoes -9.29754
310
root 14.3623 19.1325 2.76515 1097.61 -79.8597 -374.942
lowerback 10.1051 1.0239 -2.05427
upperback 12.0861 0.739073 -4.38014
thorax 7.16256 0.130524 -3.55734
lowerneck 3.31572 -3.4813 8.57659
upperneck 5.8248 -4.76317 3.74833
head 1.15513 -2.22933 -0.245467
rclavicle 1.74931e-014 -4.29375e-014
rhumerus -31.8223 8.41499 -78.7828
rradius 46.3481
rwrist -21.0416
rhand 8.8857 0.592027
rfingers 7.12502
rthumb 34.0687 -26.1765
lclavicle 1.74931e-014 -4.29375e-014
lhumerus -22.772 -11.7115 78.1249
lradius 44.0113
lwrist -4.18974
lhand -29.5631 -5.15933
lfingers 7.12502
lthumb -2.89555 24.8008
rfemur -12.6563 -1.96521 13.4282
rtibia 33.7574
rfoot -15.9845 10.2616
rtoes 0.824868
lfemur -7.53113 6.67407 -17.2672
ltibia 29.2902
lfoot -18.8899 -4.44053
ltoes -9.48695
311
root 14.3124 19.143 2.77926 1098.71 -80.0398 -375.781
lowerback 9.45203 0.82832 -2.15963
upperback 11.4699 0.544133 -4.43129
thorax 6.8275 0.048304 -3.52446
lowerneck 3.8261 -3.36192 8.38359
upperneck 6.28275 -4.59967 3.77149
head 1.22302 -2.1451 -0.20292
rclavicle -1.43125e-014 3.18055e-015
rhumerus -32.6196 7.47967 -79.0013
rradius 46.6005
rwrist -20.8159
rhand 8.89695 0.69642
rfingers 7.12502
rthumb 34.0794 -26.0697
lclavicle -1.43125e-014 3.18055e-015
lhumerus -23.5107 -11.8219 78.2467
lradius 44.1114
lwrist -3.91875
lhand -28.9106 -5.01532
lfingers 7.12502
lthumb -2.26536 24.9524
rfemur -13.1333 -2.16911 13.5948
rtibia 34.3253
rfoot -15.9662 10.3398
rtoes 0.358953
lfemur -7.45508 6.9523 -17.176
ltibia 28.9394
lfoot -18.9328 -4.50618
ltoes -9.82615
312
root 14.2618 19.1528 2.7911 1099.89 -80.2229 -376.699
lowerback 8.80886 0.6318 -2.28308
upperback 10.867 0.342412 -4.46174
thorax 6.50781 -0.0401795 -3.46193
lowerneck 4.37346 -3.23311 8.22449
upperneck 6.65082 -4.41177 3.73579
head 1.25475 -2.05351 -0.182536
rclavicle -2.14687e-014 5.88403e-014
rhumerus -33.4364 6.61342 -79.1931
rradius 46.9329
rwrist -20.6691
rhand 8.89771 0.808717
rfingers 7.12502
rthumb 34.0801 -25.9572
lclavicle -2.14687e-014 5.88403e-014
lhumerus -24.22 -11.8629 78.373
lradius 44.1938
lwrist -3.67358
lhand -28.3049 -4.92944
lfingers 7.12502
lthumb -1.68038 25.0437
rfemur -13.6483 -2.37934 13.7916
rtibia 34.9492
rfoot -15.9255 10.3954
rtoes -0.690252
lfemur -7.3732 7.2523 -17.073
ltibia 28.5758
lfoot -18.9676 -4.57582
ltoes -10.256
313
root 14.2122 19.1636 2.8038 1101.16 -80.3796 -377.685
lowerback 8.20074 0.440297 -2.34405
upperback 10.2565 0.14505 -4.48917
thorax 6.16741 -0.122216 -3.43343
lowerneck 4.9042 -3.12218 8.0776
upperneck 6.99543 -4.25004 3.70433
head 1.28128 -1.97615 -0.163087
rclavicle 7.95139e-016 -4.92986e-014
rhumerus -34.3133 5.74574 -79.3564
rradius 47.3756
rwrist -20.6027
rhand 8.89914 0.861753
rfingers 7.12502
rthumb 34.0815 -25.9039
lclavicle 7.95139e-016 -4.92986e-014
lhumerus -24.9264 -11.8379 78.5161
lradius 44.2712
lwrist -3.58548
lhand -27.653 -4.88447
lfingers 7.12502
lthumb -1.05079 25.0927
rfemur -14.2141 -2.66722 14.0062
rtibia 35.6176
rfoot -15.8741 10.489
rtoes -1.64458
lfemur -7.30997 7.47396 -16.966
ltibia 28.1991
lfoot -19.0167 -4.64171
ltoes -10.3746
314
root 14.1631 19.174 2.81511 1102.5 -80.5398 -378.749
lowerback 7.59772 0.254555 -2.40269
upperback 9.67696 -0.0491831 -4.50482
thorax 5.86389 -0.204341 -3.39712
lowerneck 5.39665 -3.00269 7.97784
upperneck 7.28442 -4.07308 3.61631
head 1.2949 -1.89237 -0.169432
rclavicle -1.03368e-014 7.95139e-015
rhumerus -35.1394 4.87357 -79.4952
rradius 47.8529
rwrist -20.612
rhand 8.88554 0.866879
rfingers 7.12502
rthumb 34.0686 -25.9016
lclavicle -1.03368e-014 7.95139e-015
lhumerus -25.5637 -11.8094 78.6514
lradius 44.3084
lwrist -3.58682
lhand -27.05 -4.85498
lfingers 7.12502
lthumb -0.468395 25.1242
rfemur -14.8094 -2.96343 14.2375
rtibia 36.3222
rfoot -15.7456 10.6352
rtoes -2.37603
lfemur -7.24638 7.73671 -16.8544
ltibia 27.8163
lfoot -19.0468 -4.69458
ltoes -10.6637
